<?xml version="1.0" encoding="utf-8"?>
<!-- Generator: Adobe Illustrator 15.0.2, SVG Export Plug-In . SVG Version: 6.00 Build 0)  -->
<!DOCTYPE svg PUBLIC "-//W3C//DTD SVG 1.1//EN" "http://www.w3.org/Graphics/SVG/1.1/DTD/svg11.dtd">
<svg version="1.1" id="Layer_1" xmlns="http://www.w3.org/2000/svg" xmlns:xlink="http://www.w3.org/1999/xlink" x="0px" y="0px"
	 width="512px" height="512px" viewBox="0 0 512 512" enable-background="new 0 0 512 512" xml:space="preserve">
<path fill="#808080" d="M328.883,335.883c-3.072,0-6.142-1.172-8.486-3.514c-4.686-4.687-4.686-12.285,0-16.971
	c32.752-32.752,32.752-86.043,0-118.794c-4.686-4.687-4.686-12.285,0-16.97c4.687-4.686,12.285-4.687,16.971,0
	C357.766,200.031,369,227.152,369,256s-11.234,55.969-31.633,76.367C335.024,334.711,331.953,335.883,328.883,335.883z
	 M286.255,313.255c-3.071,0-6.142-1.171-8.485-3.515c-4.687-4.687-4.687-12.283,0-16.97c20.275-20.274,20.275-53.265,0-73.539
	c-4.687-4.687-4.687-12.284,0-16.971c4.687-4.686,12.284-4.686,16.971,0c29.633,29.633,29.633,77.849,0,107.48
	C292.396,312.084,289.326,313.255,286.255,313.255z M249.333,147.667C255.75,141.25,261,143.425,261,152.5v207
	c0,9.075-5.25,11.25-11.667,4.832L189,304h-40v-96h40L249.333,147.667z"/>
</svg>
