<?xml version="1.0" encoding="iso-8859-1"?>
<!-- Generator: Adobe Illustrator 19.0.0, SVG Export Plug-In . SVG Version: 6.00 Build 0)  -->
<svg version="1.1" id="Capa_1" xmlns="http://www.w3.org/2000/svg" xmlns:xlink="http://www.w3.org/1999/xlink" x="0px" y="0px"
	 viewBox="0 0 512 512" style="enable-background:new 0 0 512 512;" xml:space="preserve">
<g>
	<g>
		<path d="M500.637,195.708c-14.813-14.811-38.912-14.811-53.724,0l-56.898,56.898V38.199c0-20.947-17.041-37.989-37.989-37.989
			H37.989C17.041,0.21,0,17.252,0,38.199v473.59h390.015v-151.02l110.979-110.98C515.807,234.979,515.646,210.718,500.637,195.708z
			 M374.82,496.594H15.195V38.199c0-12.569,10.224-22.793,22.793-22.793h27.858v20.309c-11.678,3.317-20.26,14.069-20.26,26.797
			c0,15.362,12.497,27.858,27.858,27.858c15.362,0,27.858-12.497,27.858-27.858c0-12.727-8.582-23.48-20.26-26.797V15.406h65.847
			v20.309c-11.678,3.317-20.261,14.069-20.261,26.797c0,15.362,12.497,27.858,27.858,27.858c15.362,0,27.858-12.497,27.858-27.858
			c0-12.727-8.582-23.48-20.261-26.797V15.406h65.847v20.309c-11.678,3.317-20.261,14.069-20.261,26.797
			c0,15.362,12.497,27.858,27.858,27.858c15.362,0,27.858-12.497,27.858-27.858c0-12.727-8.582-23.48-20.261-26.797V15.406h65.847
			v20.309c-11.678,3.317-20.26,14.069-20.26,26.797c0,15.362,12.497,27.858,27.858,27.858s27.858-12.497,27.858-27.858
			c0-12.727-8.582-23.48-20.26-26.797V15.406h27.858c12.569,0,22.793,10.224,22.793,22.793v229.602L263.893,378.727l-8.942,62.595
			l63-8.489l56.868-56.867V496.594z M73.444,49.849c6.983,0,12.663,5.68,12.663,12.663c0,6.983-5.68,12.663-12.663,12.663
			s-12.663-5.681-12.663-12.663C60.782,55.53,66.462,49.849,73.444,49.849z M154.487,49.849c6.983,0,12.663,5.68,12.663,12.663
			c0,6.983-5.68,12.663-12.663,12.663c-6.983,0-12.663-5.681-12.663-12.663C141.824,55.53,147.504,49.849,154.487,49.849z
			 M235.529,49.849c6.983,0,12.663,5.68,12.663,12.663c0,6.983-5.68,12.663-12.663,12.663c-6.983,0-12.663-5.681-12.663-12.663
			C222.866,55.53,228.546,49.849,235.529,49.849z M316.571,49.849c6.983,0,12.663,5.68,12.663,12.663
			c0,6.983-5.68,12.663-12.663,12.663s-12.663-5.681-12.663-12.663C303.908,55.53,309.588,49.849,316.571,49.849z M277.683,389.65
			l29.324,29.324l-34.171,4.604L277.683,389.65z M319.408,409.887l-32.592-32.592l147.562-147.562l32.592,32.593L319.408,409.887z
			 M490.25,239.045l-12.536,12.536l-32.592-32.593l12.536-12.536c8.886-8.886,23.347-8.887,32.234,0
			C498.823,215.384,498.987,230.308,490.25,239.045z"/>
	</g>
</g>
<g>
	<g>
		<rect x="136.759" y="105.567" width="15.195" height="15.195"/>
	</g>
</g>
<g>
	<g>
		<rect x="170.189" y="105.567" width="15.195" height="15.195"/>
	</g>
</g>
<g>
	<g>
		<rect x="36.469" y="105.567" width="15.195" height="15.195"/>
	</g>
</g>
<g>
	<g>
		<rect x="270.478" y="105.567" width="15.195" height="15.195"/>
	</g>
</g>
<g>
	<g>
		<rect x="203.618" y="105.567" width="15.195" height="15.195"/>
	</g>
</g>
<g>
	<g>
		<rect x="237.048" y="105.567" width="15.195" height="15.195"/>
	</g>
</g>
<g>
	<g>
		<rect x="337.338" y="105.567" width="15.195" height="15.195"/>
	</g>
</g>
<g>
	<g>
		<rect x="69.899" y="105.567" width="15.195" height="15.195"/>
	</g>
</g>
<g>
	<g>
		<rect x="303.908" y="105.567" width="15.195" height="15.195"/>
	</g>
</g>
<g>
	<g>
		<rect x="103.329" y="105.567" width="15.195" height="15.195"/>
	</g>
</g>
<g>
	<g>
		<rect x="187.917" y="169.388" width="30.391" height="15.195"/>
	</g>
</g>
<g>
	<g>
		<rect x="233.503" y="169.388" width="83.068" height="15.195"/>
	</g>
</g>
<g>
	<g>
		<rect x="111.939" y="169.388" width="60.782" height="15.195"/>
	</g>
</g>
<g>
	<g>
		<rect x="37.989" y="220.647" width="60.782" height="15.195"/>
	</g>
</g>
<g>
	<g>
		<rect x="113.966" y="220.647" width="162.084" height="15.195"/>
	</g>
</g>
<g>
	<g>
		<rect x="308.467" y="271.906" width="23.3" height="15.195"/>
	</g>
</g>
<g>
	<g>
		<rect x="166.643" y="271.906" width="60.782" height="15.195"/>
	</g>
</g>
<g>
	<g>
		<rect x="242.62" y="271.906" width="50.651" height="15.195"/>
	</g>
</g>
<g>
	<g>
		<rect x="37.989" y="271.906" width="42.547" height="15.195"/>
	</g>
</g>
<g>
	<g>
		<rect x="113.966" y="323.165" width="167.149" height="15.195"/>
	</g>
</g>
<g>
	<g>
		<rect x="37.989" y="323.165" width="60.782" height="15.195"/>
	</g>
</g>
<g>
	<g>
		<rect x="154.487" y="425.684" width="85.094" height="15.195"/>
	</g>
</g>
<g>
	<g>
		<rect x="37.989" y="425.684" width="53.69" height="15.195"/>
	</g>
</g>
<g>
	<g>
		<rect x="84.588" y="374.425" width="30.391" height="15.195"/>
	</g>
</g>
<g>
	<g>
		<rect x="130.174" y="374.425" width="81.042" height="15.195"/>
	</g>
</g>
<g>
	<g>
		<rect x="226.411" y="374.425" width="29.378" height="15.195"/>
	</g>
</g>
<g>
	<g>
		<rect x="37.989" y="169.388" width="60.782" height="15.195"/>
	</g>
</g>
<g>
	<g>
		<rect x="289.219" y="220.647" width="60.782" height="15.195"/>
	</g>
</g>
<g>
	<g>
		<rect x="95.731" y="271.906" width="54.703" height="15.195"/>
	</g>
</g>
<g>
	<g>
		<rect x="37.989" y="374.425" width="30.391" height="15.195"/>
	</g>
</g>
<g>
	<g>
		<rect x="106.874" y="425.684" width="32.417" height="15.195"/>
	</g>
</g>
<g>
	<g>
		<g>
			
				<rect x="387.192" y="269.967" transform="matrix(-0.7071 -0.7071 0.7071 -0.7071 461.5651 791.9001)" width="15.195" height="60.781"/>
			
				<rect x="424.618" y="254.717" transform="matrix(0.7071 -0.7071 0.7071 0.7071 -58.7107 382.8889)" width="16.428" height="15.195"/>
		</g>
	</g>
</g>
<g>
	<g>
		<rect x="332.779" y="169.388" width="19.247" height="15.195"/>
	</g>
</g>
<g>
</g>
<g>
</g>
<g>
</g>
<g>
</g>
<g>
</g>
<g>
</g>
<g>
</g>
<g>
</g>
<g>
</g>
<g>
</g>
<g>
</g>
<g>
</g>
<g>
</g>
<g>
</g>
<g>
</g>
</svg>
